<svg width="50" height="50" viewBox="0 0 50 50" fill="none" xmlns="http://www.w3.org/2000/svg">
<g clip-path="url(#clip0_20_3)">
<rect width="50" height="50" rx="2" fill="white"/>
<path d="M19.1924 27.4316L15.4141 31.3613L4 20.3867V20.0586L7.61523 16.2998L19.1924 27.4316Z" fill="black"/>
<path d="M15.9297 31.8923L12 28.114L22.9746 16.7H23.3027L27.0615 20.3152L15.9297 31.8923Z" fill="black"/>
<path d="M9 17.6543V37.9932L4 43.2236V12.7754L9 17.6543Z" fill="black"/>
<path d="M27.2129 20.0889L26.4932 20.8496L22.3926 17.2949L27.0508 12.873L27.2129 20.0889Z" fill="black"/>
<path d="M28 23.8008L23 27.5449V16.8789L28 12V23.8008Z" fill="black"/>
<path d="M48 6.50004L48 15.5L48 31L43 31L42.7209 11.7846L48 6.50004Z" fill="black"/>
<path d="M48 9.35059V13.9707L29.8066 30.2998H23.6299L23.6279 30.2979L46.6934 8L48 9.35059Z" fill="black"/>
</g>
<defs>
<clipPath id="clip0_20_3">
<rect width="50" height="50" rx="2" fill="white"/>
</clipPath>
</defs>
</svg>
